<mxfile host="app.diagrams.net" modified="2021-04-23T06:41:36.368Z" agent="5.0 (Macintosh)" etag="TNw5q6t0LUcJg9Rg8cLG" version="14.6.6" type="github">
  <diagram id="4Kn50tZl_N5daOK9ekRN" name="Page-1">
    <mxGraphModel dx="786" dy="433" grid="1" gridSize="10" guides="1" tooltips="1" connect="1" arrows="1" fold="1" page="1" pageScale="1" pageWidth="827" pageHeight="1169" math="0" shadow="0">
      <root>
        <mxCell id="0" />
        <mxCell id="1" parent="0" />
        <mxCell id="wSJGVlYIGjPZyWT6sV8C-1" value="" style="rounded=0;whiteSpace=wrap;html=1;" vertex="1" parent="1">
          <mxGeometry x="220" y="170" width="120" height="60" as="geometry" />
        </mxCell>
      </root>
    </mxGraphModel>
  </diagram>
</mxfile>
